<svg width="256" height="256" version="1.1" xmlns="http://www.w3.org/2000/svg" desc="Created with imagetracer.js version 1.2.6" ><path fill="rgb(137,143,156)" stroke="rgb(137,143,156)" stroke-width="1" opacity="0.9411764705882353" d="M 118.5 0 L 126 0.5 L 118.5 1 L 118.5 0 Z " /><path fill="rgb(137,143,156)" stroke="rgb(137,143,156)" stroke-width="1" opacity="0.9411764705882353" d="M 130.5 0 L 138 0.5 L 130.5 1 L 130.5 0 Z " /><path fill="rgb(137,143,156)" stroke="rgb(137,143,156)" stroke-width="1" opacity="0.9411764705882353" d="M 109.5 1 L 113 1.5 L 109.5 2 L 109.5 1 Z " /><path fill="rgb(137,143,156)" stroke="rgb(137,143,156)" stroke-width="1" opacity="0.9411764705882353" d="M 143.5 1 L 147 1.5 L 143.5 2 L 143.5 1 Z " /><path fill="rgb(137,143,156)" stroke="rgb(137,143,156)" stroke-width="1" opacity="0.9411764705882353" d="M 103.5 2 L 106 2.5 L 103.5 3 L 103.5 2 Z " /><path fill="rgb(137,143,156)" stroke="rgb(137,143,156)" stroke-width="1" opacity="0.9411764705882353" d="M 150.5 2 L 153 2.5 L 150.5 3 L 150.5 2 Z " /><path fill="rgb(137,143,156)" stroke="rgb(137,143,156)" stroke-width="1" opacity="0.9411764705882353" d="M 54.5 23 L 53.5 25 L 54.5 23 Z " /><path fill="rgb(137,143,156)" stroke="rgb(137,143,156)" stroke-width="1" opacity="0.9411764705882353" d="M 201.5 23 L 202.5 25 L 201.5 23 Z " /><path fill="rgb(137,143,156)" stroke="rgb(137,143,156)" stroke-width="1" opacity="0.9411764705882353" d="M 51.5 25 L 49.5 28 L 51.5 25 Z " /><path fill="rgb(137,143,156)" stroke="rgb(137,143,156)" stroke-width="1" opacity="0.9411764705882353" d="M 204.5 25 L 206.5 28 L 204.5 25 Z " /><path fill="rgb(137,143,156)" stroke="rgb(137,143,156)" stroke-width="1" opacity="0.9411764705882353" d="M 46.5 29 L 43.5 33 L 46.5 29 Z " /><path fill="rgb(137,143,156)" stroke="rgb(137,143,156)" stroke-width="1" opacity="0.9411764705882353" d="M 209.5 29 L 212.5 33 L 209.5 29 Z " /><path fill="rgb(137,143,156)" stroke="rgb(137,143,156)" stroke-width="1" opacity="0.9411764705882353" d="M 32.5 43 L 29.5 47 L 32.5 43 Z " /><path fill="rgb(137,143,156)" stroke="rgb(137,143,156)" stroke-width="1" opacity="0.9411764705882353" d="M 223.5 43 L 226.5 47 L 223.5 43 Z " /><path fill="rgb(137,143,156)" stroke="rgb(137,143,156)" stroke-width="1" opacity="0.9411764705882353" d="M 27.5 49 L 25.5 52 L 27.5 49 Z " /><path fill="rgb(137,143,156)" stroke="rgb(137,143,156)" stroke-width="1" opacity="0.9411764705882353" d="M 228.5 49 L 230.5 52 L 228.5 49 Z " /><path fill="rgb(137,143,156)" stroke="rgb(137,143,156)" stroke-width="1" opacity="0.9411764705882353" d="M 145.5 50 L 148 50.5 L 145.5 51 L 145.5 50 Z " /><path fill="rgb(137,143,156)" stroke="rgb(137,143,156)" stroke-width="1" opacity="0.9411764705882353" d="M 178.5 51 L 182 51.5 L 178.5 52 L 178.5 51 Z " /><path fill="rgb(137,143,156)" stroke="rgb(137,143,156)" stroke-width="1" opacity="0.9411764705882353" d="M 24.5 53 L 23.5 55 L 24.5 53 Z " /><path fill="rgb(137,143,156)" stroke="rgb(137,143,156)" stroke-width="1" opacity="0.9411764705882353" d="M 231.5 53 L 232.5 55 L 231.5 53 Z " /><path fill="rgb(137,143,156)" stroke="rgb(137,143,156)" stroke-width="1" opacity="0.9411764705882353" d="M 124.5 59 L 117.5 67 L 124.5 59 Z " /><path fill="rgb(137,143,156)" stroke="rgb(137,143,156)" stroke-width="1" opacity="0.9411764705882353" d="M 116.5 68 L 115.5 70 L 116.5 68 Z " /><path fill="rgb(137,143,156)" stroke="rgb(137,143,156)" stroke-width="1" opacity="0.9411764705882353" d="M 163.5 84 L 167 84.5 L 163.5 85 L 163.5 84 Z " /><path fill="rgb(137,143,156)" stroke="rgb(137,143,156)" stroke-width="1" opacity="0.9411764705882353" d="M 108.5 88 L 109 90.5 L 108 90.5 L 108.5 88 Z " /><path fill="rgb(137,143,156)" stroke="rgb(137,143,156)" stroke-width="1" opacity="0.9411764705882353" d="M 154.5 88 L 151.5 92 L 154.5 88 Z " /><path fill="rgb(137,143,156)" stroke="rgb(137,143,156)" stroke-width="1" opacity="0.9411764705882353" d="M 148.5 99 L 149 102.5 L 148 102.5 L 148.5 99 Z " /><path fill="rgb(137,143,156)" stroke="rgb(137,143,156)" stroke-width="1" opacity="0.9411764705882353" d="M 2.5 103 L 3 105.5 L 2 105.5 L 2.5 103 Z " /><path fill="rgb(137,143,156)" stroke="rgb(137,143,156)" stroke-width="1" opacity="0.9411764705882353" d="M 253.5 103 L 254 105.5 L 253 105.5 L 253.5 103 Z " /><path fill="rgb(137,143,156)" stroke="rgb(137,143,156)" stroke-width="1" opacity="0.9411764705882353" d="M 1.5 109 L 2 112.5 L 1 112.5 L 1.5 109 Z " /><path fill="rgb(137,143,156)" stroke="rgb(137,143,156)" stroke-width="1" opacity="0.9411764705882353" d="M 254.5 109 L 255 112.5 L 254 112.5 L 254.5 109 Z " /><path fill="rgb(137,143,156)" stroke="rgb(137,143,156)" stroke-width="1" opacity="0.9411764705882353" d="M 0.5 118 L 1 125.5 L 0 125.5 L 0.5 118 Z " /><path fill="rgb(137,143,156)" stroke="rgb(137,143,156)" stroke-width="1" opacity="0.9411764705882353" d="M 255.5 118 L 256 125.5 L 255 125.5 L 255.5 118 Z " /><path fill="rgb(137,143,156)" stroke="rgb(137,143,156)" stroke-width="1" opacity="0.9411764705882353" d="M 183.5 128 L 184 130.5 L 183 130.5 L 183.5 128 Z " /><path fill="rgb(137,143,156)" stroke="rgb(137,143,156)" stroke-width="1" opacity="0.9411764705882353" d="M 255.5 130 L 256 137.5 L 255 137.5 L 255.5 130 Z " /><path fill="rgb(137,143,156)" stroke="rgb(137,143,156)" stroke-width="1" opacity="0.9411764705882353" d="M 0.5 131 L 1 137.5 L 0 137.5 L 0.5 131 Z " /><path fill="rgb(137,143,156)" stroke="rgb(137,143,156)" stroke-width="1" opacity="0.9411764705882353" d="M 182.5 135 L 183 137.5 L 182 137.5 L 182.5 135 Z " /><path fill="rgb(137,143,156)" stroke="rgb(137,143,156)" stroke-width="1" opacity="0.9411764705882353" d="M 181.5 141 L 182 143.5 L 181 143.5 L 181.5 141 Z " /><path fill="rgb(137,143,156)" stroke="rgb(137,143,156)" stroke-width="1" opacity="0.9411764705882353" d="M 1.5 143 L 2 146.5 L 1 146.5 L 1.5 143 Z " /><path fill="rgb(137,143,156)" stroke="rgb(137,143,156)" stroke-width="1" opacity="0.9411764705882353" d="M 254.5 143 L 255 146.5 L 254 146.5 L 254.5 143 Z " /><path fill="rgb(137,143,156)" stroke="rgb(137,143,156)" stroke-width="1" opacity="0.9411764705882353" d="M 180.5 148 L 181 150.5 L 180 150.5 L 180.5 148 Z " /><path fill="rgb(137,143,156)" stroke="rgb(137,143,156)" stroke-width="1" opacity="0.9411764705882353" d="M 2.5 150 L 3 152.5 L 2 152.5 L 2.5 150 Z " /><path fill="rgb(137,143,156)" stroke="rgb(137,143,156)" stroke-width="1" opacity="0.9411764705882353" d="M 253.5 150 L 254 152.5 L 253 152.5 L 253.5 150 Z " /><path fill="rgb(137,143,156)" stroke="rgb(137,143,156)" stroke-width="1" opacity="0.9411764705882353" d="M 179.5 154 L 180 156.5 L 179 156.5 L 179.5 154 Z " /><path fill="rgb(137,143,156)" stroke="rgb(137,143,156)" stroke-width="1" opacity="0.9411764705882353" d="M 178.5 161 L 179 163.5 L 178 163.5 L 178.5 161 Z " /><path fill="rgb(137,143,156)" stroke="rgb(137,143,156)" stroke-width="1" opacity="0.9411764705882353" d="M 23.5 201 L 24.5 203 L 23.5 201 Z " /><path fill="rgb(137,143,156)" stroke="rgb(137,143,156)" stroke-width="1" opacity="0.9411764705882353" d="M 232.5 201 L 231.5 203 L 232.5 201 Z " /><path fill="rgb(137,143,156)" stroke="rgb(137,143,156)" stroke-width="1" opacity="0.9411764705882353" d="M 25.5 204 L 27.5 207 L 25.5 204 Z " /><path fill="rgb(137,143,156)" stroke="rgb(137,143,156)" stroke-width="1" opacity="0.9411764705882353" d="M 230.5 204 L 228.5 207 L 230.5 204 Z " /><path fill="rgb(137,143,156)" stroke="rgb(137,143,156)" stroke-width="1" opacity="0.9411764705882353" d="M 29.5 209 L 32.5 213 L 29.5 209 Z " /><path fill="rgb(137,143,156)" stroke="rgb(137,143,156)" stroke-width="1" opacity="0.9411764705882353" d="M 226.5 209 L 223.5 213 L 226.5 209 Z " /><path fill="rgb(137,143,156)" stroke="rgb(137,143,156)" stroke-width="1" opacity="0.9411764705882353" d="M 43.5 223 L 46.5 227 L 43.5 223 Z " /><path fill="rgb(137,143,156)" stroke="rgb(137,143,156)" stroke-width="1" opacity="0.9411764705882353" d="M 212.5 223 L 209.5 227 L 212.5 223 Z " /><path fill="rgb(137,143,156)" stroke="rgb(137,143,156)" stroke-width="1" opacity="0.9411764705882353" d="M 49.5 228 L 51.5 231 L 49.5 228 Z " /><path fill="rgb(137,143,156)" stroke="rgb(137,143,156)" stroke-width="1" opacity="0.9411764705882353" d="M 206.5 228 L 204.5 231 L 206.5 228 Z " /><path fill="rgb(137,143,156)" stroke="rgb(137,143,156)" stroke-width="1" opacity="0.9411764705882353" d="M 53.5 231 L 54.5 233 L 53.5 231 Z " /><path fill="rgb(137,143,156)" stroke="rgb(137,143,156)" stroke-width="1" opacity="0.9411764705882353" d="M 202.5 231 L 201.5 233 L 202.5 231 Z " /><path fill="rgb(137,143,156)" stroke="rgb(137,143,156)" stroke-width="1" opacity="0.9411764705882353" d="M 103.5 253 L 106 253.5 L 103.5 254 L 103.5 253 Z " /><path fill="rgb(137,143,156)" stroke="rgb(137,143,156)" stroke-width="1" opacity="0.9411764705882353" d="M 150.5 253 L 153 253.5 L 150.5 254 L 150.5 253 Z " /><path fill="rgb(248,248,249)" stroke="rgb(248,248,249)" stroke-width="1" opacity="0.9921568627450981" d="M 148.5 50 L 169 50.5 L 148.5 51 L 148.5 50 Z " /><path fill="rgb(248,248,249)" stroke="rgb(248,248,249)" stroke-width="1" opacity="0.9921568627450981" d="M 142.5 51 L 145 51.5 L 142.5 52 L 142.5 51 Z " /><path fill="rgb(248,248,249)" stroke="rgb(248,248,249)" stroke-width="1" opacity="0.9921568627450981" d="M 173.5 51 L 178 51.5 L 173.5 52 L 173.5 51 Z " /><path fill="rgb(248,248,249)" stroke="rgb(248,248,249)" stroke-width="1" opacity="0.9921568627450981" d="M 181.5 52 L 185 52.5 L 181.5 53 L 181.5 52 Z " /><path fill="rgb(248,248,249)" stroke="rgb(248,248,249)" stroke-width="1" opacity="0.9921568627450981" d="M 184.5 54 L 185 84 L 167 83.5 L 184 83 L 184.5 54 Z " /><path fill="rgb(248,248,249)" stroke="rgb(248,248,249)" stroke-width="1" opacity="0.9921568627450981" d="M 131.5 55 L 130.5 57 L 128.5 58 L 129.5 56 L 131.5 55 Z " /><path fill="rgb(248,248,249)" stroke="rgb(248,248,249)" stroke-width="1" opacity="0.9921568627450981" d="M 126.5 58 L 124.5 61 L 126.5 58 Z " /><path fill="rgb(248,248,249)" stroke="rgb(248,248,249)" stroke-width="1" opacity="0.9921568627450981" d="M 118.5 66 L 117.5 68 L 118.5 66 Z " /><path fill="rgb(248,248,249)" stroke="rgb(248,248,249)" stroke-width="1" opacity="0.9921568627450981" d="M 109.5 85 L 110 87.5 L 109 87.5 L 109.5 85 Z " /><path fill="rgb(248,248,249)" stroke="rgb(248,248,249)" stroke-width="1" opacity="0.9921568627450981" d="M 156.5 86 L 155.5 88 L 156.5 86 Z " /><path fill="rgb(248,248,249)" stroke="rgb(248,248,249)" stroke-width="1" opacity="0.9921568627450981" d="M 153.5 88 L 152.5 90 L 153.5 88 Z " /><path fill="rgb(248,248,249)" stroke="rgb(248,248,249)" stroke-width="1" opacity="0.9921568627450981" d="M 108.5 91 L 109 127.5 L 107.5 129 L 77.5 129 L 77.5 128 L 108 128 L 108.5 91 Z " /><path fill="rgb(248,248,249)" stroke="rgb(248,248,249)" stroke-width="1" opacity="0.9921568627450981" d="M 148.5 96 L 149 98.5 L 148 98.5 L 148.5 96 Z " /><path fill="rgb(248,248,249)" stroke="rgb(248,248,249)" stroke-width="1" opacity="0.9921568627450981" d="M 147.5 102 L 148 128 L 182 128.5 L 148.5 129 L 147 127.5 L 147.5 102 Z " /><path fill="rgb(248,248,249)" stroke="rgb(248,248,249)" stroke-width="1" opacity="0.9921568627450981" d="M 75.5 129 L 76 163.5 L 75 163.5 L 75.5 129 Z " /><path fill="rgb(248,248,249)" stroke="rgb(248,248,249)" stroke-width="1" opacity="0.9921568627450981" d="M 182.5 131 L 183 134.5 L 182 134.5 L 182.5 131 Z " /><path fill="rgb(248,248,249)" stroke="rgb(248,248,249)" stroke-width="1" opacity="0.9921568627450981" d="M 181.5 137 L 182 140.5 L 181 140.5 L 181.5 137 Z " /><path fill="rgb(248,248,249)" stroke="rgb(248,248,249)" stroke-width="1" opacity="0.9921568627450981" d="M 180.5 144 L 181 147.5 L 180 147.5 L 180.5 144 Z " /><path fill="rgb(248,248,249)" stroke="rgb(248,248,249)" stroke-width="1" opacity="0.9921568627450981" d="M 179.5 150 L 180 153.5 L 179 153.5 L 179.5 150 Z " /><path fill="rgb(248,248,249)" stroke="rgb(248,248,249)" stroke-width="1" opacity="0.9921568627450981" d="M 178.5 157 L 179 160.5 L 178 160.5 L 178.5 157 Z " /><path fill="rgb(248,248,249)" stroke="rgb(248,248,249)" stroke-width="1" opacity="0.9921568627450981" d="M 77.5 164 L 107.5 164 L 109 165.5 L 108.5 253 L 108 165 L 77.5 165 L 77.5 164 Z " /><path fill="rgb(248,248,249)" stroke="rgb(248,248,249)" stroke-width="1" opacity="0.9921568627450981" d="M 148.5 164 L 176 164.5 L 148 165 L 147.5 253 L 147 165.5 L 148.5 164 Z " /><path fill="rgb(137,143,156)" stroke="rgb(137,143,156)" stroke-width="1" opacity="1" d="M 126.5 0 L 142.5 1 L 159.5 4 L 179.5 11 Q 205.4 22.6 223 42.5 Q 239.8 60.7 249 86.5 L 254 106.5 L 256 129.5 L 255 130.5 L 255 142.5 L 254 143.5 L 253 154.5 L 245 179.5 Q 233.4 205.4 213.5 223 Q 188.6 246.9 148 254 L 148 165 L 177.5 165 L 179 163.5 L 179 157.5 L 184 128 L 148 128 L 148 103.5 L 151 92.5 L 156.5 87 L 167.5 84 L 185 84 L 185 52.5 L 182.5 52 L 172.5 50 L 170.5 50 L 145.5 50 L 137.5 52 Q 124.6 56.6 117 66.5 Q 110.4 75.4 108 88.5 L 108 128 L 76.5 128 L 75 129.5 L 75 163.5 L 76.5 165 L 108 165 L 108 254 Q 59.8 245 33 213.5 Q 16.2 195.3 7 169.5 L 2 149.5 L 0 126.5 L 1 125.5 L 1 113.5 L 2 112.5 L 3 101.5 L 11 76.5 Q 22.6 50.6 42.5 33 Q 60.7 16.2 86.5 7 L 106.5 2 L 125.5 1 L 126.5 0 Z " /><path fill="rgb(0,0,0)" stroke="rgb(0,0,0)" stroke-width="1" opacity="0" d="M 0 0 L 100.5 0 L 103.5 1 Q 105 -1.5 110.5 0 L 110.5 1 L 105.5 1 L 92.5 4 L 69.5 13 Q 45.6 25.6 29 45.5 Q 16.1 60.6 8 80.5 L 1 104.5 L 0.5 111 L 0 104.5 L 1 101.5 L 0 100.5 L 0 0 Z " /><path fill="rgb(0,0,0)" stroke="rgb(0,0,0)" stroke-width="1" opacity="0" d="M 145.5 0 L 154.5 1 L 155.5 0 L 256 0 L 256 100.5 L 255 103.5 Q 257.5 105 256 110.5 L 255 110.5 L 255 104.5 L 252 92.5 L 243 69.5 Q 230.4 45.6 210.5 29 L 184.5 12 L 163.5 4 L 151.5 1 L 145.5 1 L 145.5 0 Z " /><path fill="rgb(0,0,0)" stroke="rgb(0,0,0)" stroke-width="1" opacity="0" d="M 0.5 145 L 4 163.5 L 13 186.5 Q 25.6 210.4 45.5 227 Q 60.7 239.8 80.5 248 L 104.5 255 L 111 255.5 L 104.5 256 L 101.5 255 L 100.5 256 L 0 256 L 0 155.5 L 1 152.5 Q -1.8 150.7 0.5 145 Z " /><path fill="rgb(0,0,0)" stroke="rgb(0,0,0)" stroke-width="1" opacity="0" d="M 255.5 145 L 256 151.5 L 255 154.5 L 256 155.5 L 256 256 L 155.5 256 L 152.5 255 Q 151 257.5 145.5 256 L 145.5 255 L 150.5 255 L 163.5 252 L 186.5 243 Q 210.4 230.4 227 210.5 Q 239.9 195.4 248 175.5 L 255 151.5 L 255.5 145 Z " /><path fill="rgb(133,139,153)" stroke="rgb(133,139,153)" stroke-width="1" opacity="0.25882352941176473" d="M 112.5 0 L 118 0.5 L 112.5 1 L 112.5 0 Z " /><path fill="rgb(133,139,153)" stroke="rgb(133,139,153)" stroke-width="1" opacity="0.25882352941176473" d="M 138.5 0 L 144 0.5 L 138.5 1 L 138.5 0 Z " /><path fill="rgb(133,139,153)" stroke="rgb(133,139,153)" stroke-width="1" opacity="0.25882352941176473" d="M 105.5 1 L 109 1.5 L 105.5 2 L 105.5 1 Z " /><path fill="rgb(133,139,153)" stroke="rgb(133,139,153)" stroke-width="1" opacity="0.25882352941176473" d="M 147.5 1 L 151 1.5 L 147.5 2 L 147.5 1 Z " /><path fill="rgb(133,139,153)" stroke="rgb(133,139,153)" stroke-width="1" opacity="0.25882352941176473" d="M 100.5 2 L 103 2.5 L 100.5 3 L 100.5 2 Z " /><path fill="rgb(133,139,153)" stroke="rgb(133,139,153)" stroke-width="1" opacity="0.25882352941176473" d="M 153.5 2 L 156 2.5 L 153.5 3 L 153.5 2 Z " /><path fill="rgb(133,139,153)" stroke="rgb(133,139,153)" stroke-width="1" opacity="0.25882352941176473" d="M 96.5 3 L 99 3.5 L 96.5 4 L 96.5 3 Z " /><path fill="rgb(133,139,153)" stroke="rgb(133,139,153)" stroke-width="1" opacity="0.25882352941176473" d="M 157.5 3 L 160 3.5 L 157.5 4 L 157.5 3 Z " /><path fill="rgb(133,139,153)" stroke="rgb(133,139,153)" stroke-width="1" opacity="0.25882352941176473" d="M 92.5 4 L 95 4.5 L 92.5 5 L 92.5 4 Z " /><path fill="rgb(133,139,153)" stroke="rgb(133,139,153)" stroke-width="1" opacity="0.25882352941176473" d="M 161.5 4 L 164 4.5 L 161.5 5 L 161.5 4 Z " /><path fill="rgb(133,139,153)" stroke="rgb(133,139,153)" stroke-width="1" opacity="0.25882352941176473" d="M 64.5 16 L 63.5 18 L 61.5 19 L 62.5 17 L 64.5 16 Z " /><path fill="rgb(133,139,153)" stroke="rgb(133,139,153)" stroke-width="1" opacity="0.25882352941176473" d="M 191.5 16 L 195 18.5 L 193.5 18 L 191.5 16 Z " /><path fill="rgb(133,139,153)" stroke="rgb(133,139,153)" stroke-width="1" opacity="0.25882352941176473" d="M 59.5 19 L 58.5 21 L 59.5 19 Z " /><path fill="rgb(133,139,153)" stroke="rgb(133,139,153)" stroke-width="1" opacity="0.25882352941176473" d="M 196.5 19 L 197.5 21 L 196.5 19 Z " /><path fill="rgb(133,139,153)" stroke="rgb(133,139,153)" stroke-width="1" opacity="0.25882352941176473" d="M 56.5 21 L 55.5 23 L 56.5 21 Z " /><path fill="rgb(133,139,153)" stroke="rgb(133,139,153)" stroke-width="1" opacity="0.25882352941176473" d="M 199.5 21 L 200.5 23 L 199.5 21 Z " /><path fill="rgb(133,139,153)" stroke="rgb(133,139,153)" stroke-width="1" opacity="0.25882352941176473" d="M 53.5 23 L 52.5 25 L 53.5 23 Z " /><path fill="rgb(133,139,153)" stroke="rgb(133,139,153)" stroke-width="1" opacity="0.25882352941176473" d="M 202.5 23 L 203.5 25 L 202.5 23 Z " /><path fill="rgb(133,139,153)" stroke="rgb(133,139,153)" stroke-width="1" opacity="0.25882352941176473" d="M 49.5 26 L 47.5 29 L 49.5 26 Z " /><path fill="rgb(133,139,153)" stroke="rgb(133,139,153)" stroke-width="1" opacity="0.25882352941176473" d="M 206.5 26 L 208.5 29 L 206.5 26 Z " /><path fill="rgb(133,139,153)" stroke="rgb(133,139,153)" stroke-width="1" opacity="0.25882352941176473" d="M 44.5 30 L 30.5 45 L 44.5 30 Z " /><path fill="rgb(133,139,153)" stroke="rgb(133,139,153)" stroke-width="1" opacity="0.25882352941176473" d="M 211.5 30 L 225.5 45 L 211.5 30 Z " /><path fill="rgb(133,139,153)" stroke="rgb(133,139,153)" stroke-width="1" opacity="0.25882352941176473" d="M 28.5 47 L 26.5 50 L 28.5 47 Z " /><path fill="rgb(133,139,153)" stroke="rgb(133,139,153)" stroke-width="1" opacity="0.25882352941176473" d="M 227.5 47 L 229.5 50 L 227.5 47 Z " /><path fill="rgb(133,139,153)" stroke="rgb(133,139,153)" stroke-width="1" opacity="0.25882352941176473" d="M 24.5 52 L 23.5 54 L 24.5 52 Z " /><path fill="rgb(133,139,153)" stroke="rgb(133,139,153)" stroke-width="1" opacity="0.25882352941176473" d="M 231.5 52 L 232.5 54 L 231.5 52 Z " /><path fill="rgb(133,139,153)" stroke="rgb(133,139,153)" stroke-width="1" opacity="0.25882352941176473" d="M 22.5 55 L 21.5 57 L 22.5 55 Z " /><path fill="rgb(133,139,153)" stroke="rgb(133,139,153)" stroke-width="1" opacity="0.25882352941176473" d="M 233.5 55 L 234.5 57 L 233.5 55 Z " /><path fill="rgb(133,139,153)" stroke="rgb(133,139,153)" stroke-width="1" opacity="0.25882352941176473" d="M 20.5 58 L 19.5 60 L 20.5 58 Z " /><path fill="rgb(133,139,153)" stroke="rgb(133,139,153)" stroke-width="1" opacity="0.25882352941176473" d="M 235.5 58 L 236.5 60 L 235.5 58 Z " /><path fill="rgb(133,139,153)" stroke="rgb(133,139,153)" stroke-width="1" opacity="0.25882352941176473" d="M 18.5 61 L 18 62.5 L 16.5 65 L 17 63.5 L 18.5 61 Z " /><path fill="rgb(133,139,153)" stroke="rgb(133,139,153)" stroke-width="1" opacity="0.25882352941176473" d="M 237.5 61 L 240 64.5 L 238 63.5 L 237.5 61 Z " /><path fill="rgb(133,139,153)" stroke="rgb(133,139,153)" stroke-width="1" opacity="0.25882352941176473" d="M 4.5 92 L 5 94.5 L 4 94.5 L 4.5 92 Z " /><path fill="rgb(133,139,153)" stroke="rgb(133,139,153)" stroke-width="1" opacity="0.25882352941176473" d="M 251.5 92 L 252 94.5 L 251 94.5 L 251.5 92 Z " /><path fill="rgb(133,139,153)" stroke="rgb(133,139,153)" stroke-width="1" opacity="0.25882352941176473" d="M 3.5 96 L 4 98.5 L 3 98.5 L 3.5 96 Z " /><path fill="rgb(133,139,153)" stroke="rgb(133,139,153)" stroke-width="1" opacity="0.25882352941176473" d="M 252.5 96 L 253 98.5 L 252 98.5 L 252.5 96 Z " /><path fill="rgb(133,139,153)" stroke="rgb(133,139,153)" stroke-width="1" opacity="0.25882352941176473" d="M 2.5 100 L 3 102.5 L 2 102.5 L 2.5 100 Z " /><path fill="rgb(133,139,153)" stroke="rgb(133,139,153)" stroke-width="1" opacity="0.25882352941176473" d="M 253.5 100 L 254 102.5 L 253 102.5 L 253.5 100 Z " /><path fill="rgb(133,139,153)" stroke="rgb(133,139,153)" stroke-width="1" opacity="0.25882352941176473" d="M 1.5 105 L 2 108.5 L 1 108.5 L 1.5 105 Z " /><path fill="rgb(133,139,153)" stroke="rgb(133,139,153)" stroke-width="1" opacity="0.25882352941176473" d="M 254.5 105 L 255 108.5 L 254 108.5 L 254.5 105 Z " /><path fill="rgb(133,139,153)" stroke="rgb(133,139,153)" stroke-width="1" opacity="0.25882352941176473" d="M 0.5 112 L 1 117.5 L 0 117.5 L 0.5 112 Z " /><path fill="rgb(133,139,153)" stroke="rgb(133,139,153)" stroke-width="1" opacity="0.25882352941176473" d="M 255.5 112 L 256 117.5 L 255 117.5 L 255.5 112 Z " /><path fill="rgb(133,139,153)" stroke="rgb(133,139,153)" stroke-width="1" opacity="0.25882352941176473" d="M 0.5 138 L 1 143.5 L 0 143.5 L 0.5 138 Z " /><path fill="rgb(133,139,153)" stroke="rgb(133,139,153)" stroke-width="1" opacity="0.25882352941176473" d="M 255.5 138 L 256 143.5 L 255 143.5 L 255.5 138 Z " /><path fill="rgb(133,139,153)" stroke="rgb(133,139,153)" stroke-width="1" opacity="0.25882352941176473" d="M 1.5 147 L 2 150.5 L 1 150.5 L 1.5 147 Z " /><path fill="rgb(133,139,153)" stroke="rgb(133,139,153)" stroke-width="1" opacity="0.25882352941176473" d="M 254.5 147 L 255 150.5 L 254 150.5 L 254.5 147 Z " /><path fill="rgb(133,139,153)" stroke="rgb(133,139,153)" stroke-width="1" opacity="0.25882352941176473" d="M 2.5 153 L 3 155.5 L 2 155.5 L 2.5 153 Z " /><path fill="rgb(133,139,153)" stroke="rgb(133,139,153)" stroke-width="1" opacity="0.25882352941176473" d="M 253.5 153 L 254 155.5 L 253 155.5 L 253.5 153 Z " /><path fill="rgb(133,139,153)" stroke="rgb(133,139,153)" stroke-width="1" opacity="0.25882352941176473" d="M 3.5 157 L 4 159.5 L 3 159.5 L 3.5 157 Z " /><path fill="rgb(133,139,153)" stroke="rgb(133,139,153)" stroke-width="1" opacity="0.25882352941176473" d="M 252.5 157 L 253 159.5 L 252 159.5 L 252.5 157 Z " /><path fill="rgb(133,139,153)" stroke="rgb(133,139,153)" stroke-width="1" opacity="0.25882352941176473" d="M 4.5 161 L 5 163.5 L 4 163.5 L 4.5 161 Z " /><path fill="rgb(133,139,153)" stroke="rgb(133,139,153)" stroke-width="1" opacity="0.25882352941176473" d="M 251.5 161 L 252 163.5 L 251 163.5 L 251.5 161 Z " /><path fill="rgb(133,139,153)" stroke="rgb(133,139,153)" stroke-width="1" opacity="0.25882352941176473" d="M 16.5 191 L 19 194.5 L 17 193.5 L 16.5 191 Z " /><path fill="rgb(133,139,153)" stroke="rgb(133,139,153)" stroke-width="1" opacity="0.25882352941176473" d="M 239.5 191 L 239 192.5 L 237.5 195 L 238 193.5 L 239.5 191 Z " /><path fill="rgb(133,139,153)" stroke="rgb(133,139,153)" stroke-width="1" opacity="0.25882352941176473" d="M 19.5 196 L 20.5 198 L 19.5 196 Z " /><path fill="rgb(133,139,153)" stroke="rgb(133,139,153)" stroke-width="1" opacity="0.25882352941176473" d="M 236.5 196 L 235.5 198 L 236.5 196 Z " /><path fill="rgb(133,139,153)" stroke="rgb(133,139,153)" stroke-width="1" opacity="0.25882352941176473" d="M 21.5 199 L 22.5 201 L 21.5 199 Z " /><path fill="rgb(133,139,153)" stroke="rgb(133,139,153)" stroke-width="1" opacity="0.25882352941176473" d="M 234.5 199 L 233.5 201 L 234.5 199 Z " /><path fill="rgb(133,139,153)" stroke="rgb(133,139,153)" stroke-width="1" opacity="0.25882352941176473" d="M 23.5 202 L 24.5 204 L 23.5 202 Z " /><path fill="rgb(133,139,153)" stroke="rgb(133,139,153)" stroke-width="1" opacity="0.25882352941176473" d="M 232.5 202 L 231.5 204 L 232.5 202 Z " /><path fill="rgb(133,139,153)" stroke="rgb(133,139,153)" stroke-width="1" opacity="0.25882352941176473" d="M 26.5 206 L 28.5 209 L 26.5 206 Z " /><path fill="rgb(133,139,153)" stroke="rgb(133,139,153)" stroke-width="1" opacity="0.25882352941176473" d="M 229.5 206 L 227.5 209 L 229.5 206 Z " /><path fill="rgb(133,139,153)" stroke="rgb(133,139,153)" stroke-width="1" opacity="0.25882352941176473" d="M 30.5 211 L 44.5 226 L 30.5 211 Z " /><path fill="rgb(133,139,153)" stroke="rgb(133,139,153)" stroke-width="1" opacity="0.25882352941176473" d="M 225.5 211 L 211.5 226 L 225.5 211 Z " /><path fill="rgb(133,139,153)" stroke="rgb(133,139,153)" stroke-width="1" opacity="0.25882352941176473" d="M 47.5 227 L 49.5 230 L 47.5 227 Z " /><path fill="rgb(133,139,153)" stroke="rgb(133,139,153)" stroke-width="1" opacity="0.25882352941176473" d="M 208.5 227 L 206.5 230 L 208.5 227 Z " /><path fill="rgb(133,139,153)" stroke="rgb(133,139,153)" stroke-width="1" opacity="0.25882352941176473" d="M 52.5 231 L 53.5 233 L 52.5 231 Z " /><path fill="rgb(133,139,153)" stroke="rgb(133,139,153)" stroke-width="1" opacity="0.25882352941176473" d="M 203.5 231 L 202.5 233 L 203.5 231 Z " /><path fill="rgb(133,139,153)" stroke="rgb(133,139,153)" stroke-width="1" opacity="0.25882352941176473" d="M 55.5 233 L 56.5 235 L 55.5 233 Z " /><path fill="rgb(133,139,153)" stroke="rgb(133,139,153)" stroke-width="1" opacity="0.25882352941176473" d="M 200.5 233 L 199.5 235 L 200.5 233 Z " /><path fill="rgb(133,139,153)" stroke="rgb(133,139,153)" stroke-width="1" opacity="0.25882352941176473" d="M 58.5 235 L 59.5 237 L 58.5 235 Z " /><path fill="rgb(133,139,153)" stroke="rgb(133,139,153)" stroke-width="1" opacity="0.25882352941176473" d="M 197.5 235 L 196.5 237 L 197.5 235 Z " /><path fill="rgb(133,139,153)" stroke="rgb(133,139,153)" stroke-width="1" opacity="0.25882352941176473" d="M 61.5 237 L 65 239.5 L 63.5 239 L 61.5 237 Z " /><path fill="rgb(133,139,153)" stroke="rgb(133,139,153)" stroke-width="1" opacity="0.25882352941176473" d="M 194.5 237 L 193.5 239 L 191.5 240 L 192.5 238 L 194.5 237 Z " /><path fill="rgb(133,139,153)" stroke="rgb(133,139,153)" stroke-width="1" opacity="0.25882352941176473" d="M 92.5 251 L 95 251.5 L 92.5 252 L 92.5 251 Z " /><path fill="rgb(133,139,153)" stroke="rgb(133,139,153)" stroke-width="1" opacity="0.25882352941176473" d="M 161.5 251 L 164 251.5 L 161.5 252 L 161.5 251 Z " /><path fill="rgb(133,139,153)" stroke="rgb(133,139,153)" stroke-width="1" opacity="0.25882352941176473" d="M 96.5 252 L 99 252.5 L 96.5 253 L 96.5 252 Z " /><path fill="rgb(133,139,153)" stroke="rgb(133,139,153)" stroke-width="1" opacity="0.25882352941176473" d="M 157.5 252 L 160 252.5 L 157.5 253 L 157.5 252 Z " /><path fill="rgb(133,139,153)" stroke="rgb(133,139,153)" stroke-width="1" opacity="0.25882352941176473" d="M 100.5 253 L 103 253.5 L 100.5 254 L 100.5 253 Z " /><path fill="rgb(133,139,153)" stroke="rgb(133,139,153)" stroke-width="1" opacity="0.25882352941176473" d="M 153.5 253 L 156 253.5 L 153.5 254 L 153.5 253 Z " /><path fill="rgb(133,139,153)" stroke="rgb(133,139,153)" stroke-width="1" opacity="0.25882352941176473" d="M 105.5 254 L 108 254.5 L 105.5 255 L 105.5 254 Z " /><path fill="rgb(133,139,153)" stroke="rgb(133,139,153)" stroke-width="1" opacity="0.25882352941176473" d="M 148.5 254 L 151 254.5 L 148.5 255 L 148.5 254 Z " /><path fill="rgb(107,108,110)" stroke="rgb(107,108,110)" stroke-width="1" opacity="0.01568627450980392" d="M 101.5 0 L 104 0.5 L 101.5 1 L 101.5 0 Z " /><path fill="rgb(107,108,110)" stroke="rgb(107,108,110)" stroke-width="1" opacity="0.01568627450980392" d="M 152.5 0 L 155 0.5 L 151.5 2 L 152.5 0 Z " /><path fill="rgb(107,108,110)" stroke="rgb(107,108,110)" stroke-width="1" opacity="0.01568627450980392" d="M 79.5 7 L 80.5 9 L 79.5 7 Z " /><path fill="rgb(107,108,110)" stroke="rgb(107,108,110)" stroke-width="1" opacity="0.01568627450980392" d="M 176.5 7 L 175.5 9 L 176.5 7 Z " /><path fill="rgb(107,108,110)" stroke="rgb(107,108,110)" stroke-width="1" opacity="0.01568627450980392" d="M 70.5 11 L 71.5 13 L 70.5 11 Z " /><path fill="rgb(107,108,110)" stroke="rgb(107,108,110)" stroke-width="1" opacity="0.01568627450980392" d="M 185.5 11 L 184.5 13 L 185.5 11 Z " /><path fill="rgb(107,108,110)" stroke="rgb(107,108,110)" stroke-width="1" opacity="0.01568627450980392" d="M 68.5 12 L 69.5 14 L 68.5 12 Z " /><path fill="rgb(107,108,110)" stroke="rgb(107,108,110)" stroke-width="1" opacity="0.01568627450980392" d="M 187.5 12 L 186.5 14 L 187.5 12 Z " /><path fill="rgb(107,108,110)" stroke="rgb(107,108,110)" stroke-width="1" opacity="0.01568627450980392" d="M 64.5 14 L 63.5 16 L 64.5 14 Z " /><path fill="rgb(107,108,110)" stroke="rgb(107,108,110)" stroke-width="1" opacity="0.01568627450980392" d="M 191.5 14 L 192.5 16 L 191.5 14 Z " /><path fill="rgb(107,108,110)" stroke="rgb(107,108,110)" stroke-width="1" opacity="0.01568627450980392" d="M 59.5 17 L 58.5 19 L 59.5 17 Z " /><path fill="rgb(107,108,110)" stroke="rgb(107,108,110)" stroke-width="1" opacity="0.01568627450980392" d="M 196.5 17 L 197.5 19 L 196.5 17 Z " /><path fill="rgb(107,108,110)" stroke="rgb(107,108,110)" stroke-width="1" opacity="0.01568627450980392" d="M 56.5 19 L 55.5 21 L 56.5 19 Z " /><path fill="rgb(107,108,110)" stroke="rgb(107,108,110)" stroke-width="1" opacity="0.01568627450980392" d="M 199.5 19 L 200.5 21 L 198 20.5 L 199.5 19 Z " /><path fill="rgb(107,108,110)" stroke="rgb(107,108,110)" stroke-width="1" opacity="0.01568627450980392" d="M 53.5 21 L 51.5 24 L 53.5 21 Z " /><path fill="rgb(107,108,110)" stroke="rgb(107,108,110)" stroke-width="1" opacity="0.01568627450980392" d="M 202.5 21 L 204.5 24 L 202.5 21 Z " /><path fill="rgb(107,108,110)" stroke="rgb(107,108,110)" stroke-width="1" opacity="0.01568627450980392" d="M 49.5 24 L 50.5 26 L 49.5 25 L 47 26.5 L 49.5 24 Z " /><path fill="rgb(107,108,110)" stroke="rgb(107,108,110)" stroke-width="1" opacity="0.01568627450980392" d="M 206.5 24 L 208.5 27 Q 206.8 23.9 205 25.5 L 206.5 24 Z " /><path fill="rgb(107,108,110)" stroke="rgb(107,108,110)" stroke-width="1" opacity="0.01568627450980392" d="M 45.5 27 L 45.5 30 L 44.5 29 L 39 33.5 L 45.5 27 Z " /><path fill="rgb(107,108,110)" stroke="rgb(107,108,110)" stroke-width="1" opacity="0.01568627450980392" d="M 210.5 27 L 216.5 34 L 211.5 29 L 210 29.5 L 210.5 27 Z " /><path fill="rgb(107,108,110)" stroke="rgb(107,108,110)" stroke-width="1" opacity="0.01568627450980392" d="M 33.5 39 L 29 44.5 L 29.5 46 L 27 45.5 L 33.5 39 Z " /><path fill="rgb(107,108,110)" stroke="rgb(107,108,110)" stroke-width="1" opacity="0.01568627450980392" d="M 222.5 39 L 228.5 46 L 226 45.5 L 227 44.5 L 222.5 39 Z " /><path fill="rgb(107,108,110)" stroke="rgb(107,108,110)" stroke-width="1" opacity="0.01568627450980392" d="M 26.5 47 L 25.5 51 Q 22 49 26.5 47 Z " /><path fill="rgb(107,108,110)" stroke="rgb(107,108,110)" stroke-width="1" opacity="0.01568627450980392" d="M 229.5 47 Q 234 49 230.5 51 L 229.5 47 Z " /><path fill="rgb(107,108,110)" stroke="rgb(107,108,110)" stroke-width="1" opacity="0.01568627450980392" d="M 23.5 51 L 21.5 54 L 23.5 51 Z " /><path fill="rgb(107,108,110)" stroke="rgb(107,108,110)" stroke-width="1" opacity="0.01568627450980392" d="M 232.5 51 L 234.5 54 L 232.5 51 Z " /><path fill="rgb(107,108,110)" stroke="rgb(107,108,110)" stroke-width="1" opacity="0.01568627450980392" d="M 20.5 55 L 20.5 58 Q 17.5 56.5 20.5 55 Z " /><path fill="rgb(107,108,110)" stroke="rgb(107,108,110)" stroke-width="1" opacity="0.01568627450980392" d="M 235.5 55 L 236.5 57 L 235.5 55 Z " /><path fill="rgb(107,108,110)" stroke="rgb(107,108,110)" stroke-width="1" opacity="0.01568627450980392" d="M 18.5 58 L 17.5 60 L 18.5 58 Z " /><path fill="rgb(107,108,110)" stroke="rgb(107,108,110)" stroke-width="1" opacity="0.01568627450980392" d="M 237.5 58 L 238.5 60 L 237.5 58 Z " /><path fill="rgb(107,108,110)" stroke="rgb(107,108,110)" stroke-width="1" opacity="0.01568627450980392" d="M 15.5 63 L 14.5 65 L 15.5 63 Z " /><path fill="rgb(107,108,110)" stroke="rgb(107,108,110)" stroke-width="1" opacity="0.01568627450980392" d="M 240.5 63 L 241.5 65 L 240.5 63 Z " /><path fill="rgb(107,108,110)" stroke="rgb(107,108,110)" stroke-width="1" opacity="0.01568627450980392" d="M 12.5 68 L 13.5 70 L 12.5 68 Z " /><path fill="rgb(107,108,110)" stroke="rgb(107,108,110)" stroke-width="1" opacity="0.01568627450980392" d="M 243.5 68 L 242.5 70 L 243.5 68 Z " /><path fill="rgb(107,108,110)" stroke="rgb(107,108,110)" stroke-width="1" opacity="0.01568627450980392" d="M 11.5 70 L 12.5 72 L 11.5 70 Z " /><path fill="rgb(107,108,110)" stroke="rgb(107,108,110)" stroke-width="1" opacity="0.01568627450980392" d="M 244.5 70 L 243.5 72 L 244.5 70 Z " /><path fill="rgb(107,108,110)" stroke="rgb(107,108,110)" stroke-width="1" opacity="0.01568627450980392" d="M 7.5 79 L 8.5 81 L 7.5 79 Z " /><path fill="rgb(107,108,110)" stroke="rgb(107,108,110)" stroke-width="1" opacity="0.01568627450980392" d="M 248.5 79 L 247.5 81 L 248.5 79 Z " /><path fill="rgb(107,108,110)" stroke="rgb(107,108,110)" stroke-width="1" opacity="0.01568627450980392" d="M 0.5 101 L 2 104.5 L 0 103.5 L 0.5 101 Z " /><path fill="rgb(107,108,110)" stroke="rgb(107,108,110)" stroke-width="1" opacity="0.01568627450980392" d="M 255.5 101 L 256 103.5 L 254 104.5 L 255.5 101 Z " /><path fill="rgb(107,108,110)" stroke="rgb(107,108,110)" stroke-width="1" opacity="0.01568627450980392" d="M 1.5 151 L 1 152.5 L 0.5 155 L 0 152.5 L 1.5 151 Z " /><path fill="rgb(107,108,110)" stroke="rgb(107,108,110)" stroke-width="1" opacity="0.01568627450980392" d="M 254.5 151 L 256 154.5 L 255 154.5 L 254.5 151 Z " /><path fill="rgb(107,108,110)" stroke="rgb(107,108,110)" stroke-width="1" opacity="0.01568627450980392" d="M 8.5 175 L 7.5 177 L 8.5 175 Z " /><path fill="rgb(107,108,110)" stroke="rgb(107,108,110)" stroke-width="1" opacity="0.01568627450980392" d="M 247.5 175 L 248.5 177 L 247.5 175 Z " /><path fill="rgb(107,108,110)" stroke="rgb(107,108,110)" stroke-width="1" opacity="0.01568627450980392" d="M 12.5 184 L 11.5 186 L 12.5 184 Z " /><path fill="rgb(107,108,110)" stroke="rgb(107,108,110)" stroke-width="1" opacity="0.01568627450980392" d="M 243.5 184 L 244.5 186 L 243.5 184 Z " /><path fill="rgb(107,108,110)" stroke="rgb(107,108,110)" stroke-width="1" opacity="0.01568627450980392" d="M 13.5 186 L 12.5 188 L 13.5 186 Z " /><path fill="rgb(107,108,110)" stroke="rgb(107,108,110)" stroke-width="1" opacity="0.01568627450980392" d="M 242.5 186 L 243.5 188 L 242.5 186 Z " /><path fill="rgb(107,108,110)" stroke="rgb(107,108,110)" stroke-width="1" opacity="0.01568627450980392" d="M 14.5 191 L 15.5 193 L 14.5 191 Z " /><path fill="rgb(107,108,110)" stroke="rgb(107,108,110)" stroke-width="1" opacity="0.01568627450980392" d="M 241.5 191 L 240.5 193 L 241.5 191 Z " /><path fill="rgb(107,108,110)" stroke="rgb(107,108,110)" stroke-width="1" opacity="0.01568627450980392" d="M 17.5 196 L 18.5 198 L 17.5 196 Z " /><path fill="rgb(107,108,110)" stroke="rgb(107,108,110)" stroke-width="1" opacity="0.01568627450980392" d="M 238.5 196 L 237.5 198 L 238.5 196 Z " /><path fill="rgb(107,108,110)" stroke="rgb(107,108,110)" stroke-width="1" opacity="0.01568627450980392" d="M 20.5 198 L 20.5 201 Q 17.5 199.5 20.5 198 Z " /><path fill="rgb(107,108,110)" stroke="rgb(107,108,110)" stroke-width="1" opacity="0.01568627450980392" d="M 235.5 198 Q 238.5 199.5 235.5 201 L 235.5 198 Z " /><path fill="rgb(107,108,110)" stroke="rgb(107,108,110)" stroke-width="1" opacity="0.01568627450980392" d="M 21.5 202 L 23.5 205 L 21.5 202 Z " /><path fill="rgb(107,108,110)" stroke="rgb(107,108,110)" stroke-width="1" opacity="0.01568627450980392" d="M 234.5 202 L 232.5 205 L 234.5 202 Z " /><path fill="rgb(107,108,110)" stroke="rgb(107,108,110)" stroke-width="1" opacity="0.01568627450980392" d="M 25.5 205 L 26.5 209 Q 22 207 25.5 205 Z " /><path fill="rgb(107,108,110)" stroke="rgb(107,108,110)" stroke-width="1" opacity="0.01568627450980392" d="M 230.5 205 Q 234 207 229.5 209 L 230.5 205 Z " /><path fill="rgb(107,108,110)" stroke="rgb(107,108,110)" stroke-width="1" opacity="0.01568627450980392" d="M 27.5 210 L 30 210.5 L 29 211.5 L 33.5 217 L 27.5 210 Z " /><path fill="rgb(107,108,110)" stroke="rgb(107,108,110)" stroke-width="1" opacity="0.01568627450980392" d="M 226.5 210 L 229 210.5 L 222 216.5 L 227 211.5 L 226.5 210 Z " /><path fill="rgb(107,108,110)" stroke="rgb(107,108,110)" stroke-width="1" opacity="0.01568627450980392" d="M 39.5 222 L 44.5 227 L 46 226.5 L 45.5 229 L 39.5 222 Z " /><path fill="rgb(107,108,110)" stroke="rgb(107,108,110)" stroke-width="1" opacity="0.01568627450980392" d="M 216.5 222 L 210.5 229 L 210.5 226 L 211.5 227 L 216.5 222 Z " /><path fill="rgb(107,108,110)" stroke="rgb(107,108,110)" stroke-width="1" opacity="0.01568627450980392" d="M 47.5 229 Q 49.3 232.1 51 230.5 L 49.5 232 L 47.5 229 Z " /><path fill="rgb(107,108,110)" stroke="rgb(107,108,110)" stroke-width="1" opacity="0.01568627450980392" d="M 208.5 229 L 206.5 232 L 205.5 230 Q 207 232.5 208.5 229 Z " /><path fill="rgb(107,108,110)" stroke="rgb(107,108,110)" stroke-width="1" opacity="0.01568627450980392" d="M 51.5 232 L 53.5 235 L 51.5 232 Z " /><path fill="rgb(107,108,110)" stroke="rgb(107,108,110)" stroke-width="1" opacity="0.01568627450980392" d="M 204.5 232 L 202.5 235 L 204.5 232 Z " /><path fill="rgb(107,108,110)" stroke="rgb(107,108,110)" stroke-width="1" opacity="0.01568627450980392" d="M 55.5 235 L 56.5 237 L 55.5 235 Z " /><path fill="rgb(107,108,110)" stroke="rgb(107,108,110)" stroke-width="1" opacity="0.01568627450980392" d="M 198.5 235 L 201 235.5 Q 198.9 238.8 198.5 235 Z " /><path fill="rgb(107,108,110)" stroke="rgb(107,108,110)" stroke-width="1" opacity="0.01568627450980392" d="M 58.5 237 L 59.5 239 L 58.5 237 Z " /><path fill="rgb(107,108,110)" stroke="rgb(107,108,110)" stroke-width="1" opacity="0.01568627450980392" d="M 197.5 237 L 196.5 239 L 197.5 237 Z " /><path fill="rgb(107,108,110)" stroke="rgb(107,108,110)" stroke-width="1" opacity="0.01568627450980392" d="M 63.5 240 L 64.5 242 L 63.5 240 Z " /><path fill="rgb(107,108,110)" stroke="rgb(107,108,110)" stroke-width="1" opacity="0.01568627450980392" d="M 192.5 240 L 191.5 242 L 192.5 240 Z " /><path fill="rgb(107,108,110)" stroke="rgb(107,108,110)" stroke-width="1" opacity="0.01568627450980392" d="M 69.5 242 L 68.5 244 L 69.5 242 Z " /><path fill="rgb(107,108,110)" stroke="rgb(107,108,110)" stroke-width="1" opacity="0.01568627450980392" d="M 186.5 242 L 187.5 244 L 186.5 242 Z " /><path fill="rgb(107,108,110)" stroke="rgb(107,108,110)" stroke-width="1" opacity="0.01568627450980392" d="M 71.5 243 L 70.5 245 L 71.5 243 Z " /><path fill="rgb(107,108,110)" stroke="rgb(107,108,110)" stroke-width="1" opacity="0.01568627450980392" d="M 184.5 243 L 185.5 245 L 184.5 243 Z " /><path fill="rgb(107,108,110)" stroke="rgb(107,108,110)" stroke-width="1" opacity="0.01568627450980392" d="M 80.5 247 L 79.5 249 L 80.5 247 Z " /><path fill="rgb(107,108,110)" stroke="rgb(107,108,110)" stroke-width="1" opacity="0.01568627450980392" d="M 175.5 247 L 176.5 249 L 175.5 247 Z " /><path fill="rgb(107,108,110)" stroke="rgb(107,108,110)" stroke-width="1" opacity="0.01568627450980392" d="M 104.5 254 L 103.5 256 L 101 255.5 L 104.5 254 Z " /><path fill="rgb(107,108,110)" stroke="rgb(107,108,110)" stroke-width="1" opacity="0.01568627450980392" d="M 152.5 255 L 155 255.5 L 152.5 256 L 152.5 255 Z " /><path fill="rgb(254,255,255)" stroke="rgb(254,255,255)" stroke-width="1" opacity="0.996078431372549" d="M 145.5 51 L 172.5 51 L 185 53.5 L 184 54.5 L 184 83 L 161.5 84 L 152 89.5 L 148 96.5 Q 149.3 101.2 147 102.5 L 147 127.5 L 148.5 129 L 181.5 129 L 183 128.5 L 179 150.5 L 178 163.5 L 176.5 165 L 175.5 164 L 148.5 164 L 147 165.5 L 147 252.5 Q 149.3 253.8 146.5 255 L 144.5 256 L 111.5 256 L 108 253.5 L 109 252.5 L 109 165.5 L 107.5 164 L 77.5 164 L 76 164.5 L 76.5 128 L 77.5 129 L 107.5 129 L 109 127.5 L 109 88.5 L 110 83.5 Q 113.7 69.2 123.5 61 L 132.5 55 L 145.5 51 Z " /></svg>