<svg version="1.1" id="Layer_1" xmlns="http://www.w3.org/2000/svg" xmlns:xlink="http://www.w3.org/1999/xlink" x="0px" y="0px"
	 width="100%" viewBox="0 0 225 225" enable-background="new 0 0 225 225" xml:space="preserve">
<path fill="#808080" opacity="1.000000" stroke="none" 
	d="
M226.000000,32.000000 
	C226.000000,38.687645 226.000000,45.375290 225.707092,52.834236 
	C225.284363,54.589722 225.040863,55.573940 225.041092,56.558102 
	C225.049805,95.680428 225.080627,134.802750 224.925507,174.301926 
	C224.877991,181.810074 225.013580,188.941376 225.113129,196.509583 
	C225.686478,206.856354 221.715240,214.768280 213.749176,220.291168 
	C209.988022,222.898819 205.279343,224.139786 201.000000,226.000000 
	C197.638718,226.000000 194.277420,226.000000 190.155396,225.707016 
	C188.078247,225.288269 186.761932,225.053314 185.445450,225.052490 
	C136.191193,225.021378 86.936913,225.002655 37.682686,225.041519 
	C36.121536,225.042755 34.560883,225.666473 33.000000,226.000000 
	C30.299986,226.000000 27.599974,226.000000 24.291512,225.678162 
	C12.449541,222.336243 4.939133,215.494980 1.905114,203.625809 
	C1.949135,145.029099 1.956316,86.905937 1.949084,28.782772 
	C1.948878,27.122128 1.795510,25.461504 1.795893,23.440559 
	C6.977059,8.150259 15.204235,2.194208 30.991705,1.993889 
	C33.637424,1.960319 36.282795,1.899277 39.302040,2.040673 
	C40.634571,2.461871 41.592609,2.891080 42.552319,2.894844 
	C55.122337,2.944144 67.692764,2.963289 80.262527,2.891478 
	C81.527374,2.884252 82.788559,2.235142 84.515724,1.915403 
	C102.996178,1.904289 121.012337,1.861692 139.493530,1.862399 
	C148.286423,1.893369 156.614304,1.881035 165.316162,2.055043 
	C173.817627,2.110947 181.945129,1.980508 190.531525,1.885612 
	C193.145294,1.946816 195.300201,1.968892 197.455002,1.998709 
	C213.743408,2.224097 224.328186,12.570364 225.081299,28.924910 
	C225.129044,29.961842 225.682053,30.975508 226.000000,32.000000 
M92.346222,180.348129 
	C92.460785,182.762787 92.575348,185.177429 92.684059,187.468719 
	C102.708412,187.468719 112.110733,187.468719 121.915306,187.468719 
	C121.915306,181.085480 121.873199,175.108078 121.923958,169.131454 
	C122.034317,156.137009 121.809807,143.124115 122.449890,130.154663 
	C122.973312,119.549080 131.034698,113.235001 141.838806,113.869057 
	C150.712982,114.389847 156.918533,121.712502 156.945663,131.686600 
	C156.991440,148.515121 157.034363,165.343658 157.099289,182.172104 
	C157.106110,183.940567 157.252304,185.708511 157.336716,187.539551 
	C167.576462,187.539551 177.302200,187.539551 187.113388,187.539551 
	C187.301651,186.590714 187.542923,185.950241 187.539017,185.311264 
	C187.400681,162.653137 187.730667,139.976517 186.873520,117.344986 
	C186.446274,106.064705 180.924637,96.664146 170.729141,90.679443 
	C159.164719,83.891190 137.352661,83.551102 125.369438,97.630447 
	C124.479889,98.675598 123.989700,100.060661 123.313858,101.287704 
	C122.763145,100.886810 122.212440,100.485916 121.661728,100.085022 
	C121.661728,96.495644 121.661728,92.906265 121.661728,89.243042 
	C111.769470,89.243042 102.351547,89.243042 92.346230,89.243042 
	C92.346230,119.484428 92.346230,149.435516 92.346222,180.348129 
M48.641350,187.872238 
	C56.394131,187.872238 64.146912,187.872238 71.962708,187.872238 
	C71.962708,154.556061 71.962708,122.022751 71.962708,89.248146 
	C61.924042,89.248146 52.208206,89.248146 42.364304,89.248146 
	C42.364304,122.182068 42.364304,154.821884 42.364304,187.872070 
	C44.408825,187.872070 46.045956,187.872070 48.641350,187.872238 
M65.724716,73.382233 
	C73.065445,68.582001 76.290848,61.564095 74.676468,53.904827 
	C73.200089,46.900276 67.555588,41.064854 61.237667,40.011475 
	C52.478058,38.550995 45.535931,41.684826 41.325138,49.000431 
	C37.875557,54.993549 38.947662,64.117889 43.735889,69.517494 
	C49.272861,75.761452 56.675137,77.236153 65.724716,73.382233 
z"/>
<path fill="#FDFDFD" opacity="1.000000" stroke="none" 
	d="
M226.000000,31.531342 
	C225.682053,30.975508 225.129044,29.961842 225.081299,28.924910 
	C224.328186,12.570364 213.743408,2.224097 197.455002,1.998709 
	C195.300201,1.968892 193.145294,1.946816 190.510269,1.673360 
	C190.030106,1.425565 190.000000,1.000000 190.000000,1.000000 
	C201.921082,1.000000 213.842178,1.000000 226.000000,1.000000 
	C226.000000,11.019654 226.000000,21.041170 226.000000,31.531342 
z"/>
<path fill="#FCFCFC" opacity="1.000000" stroke="none" 
	d="
M38.928326,1.850929 
	C36.282795,1.899277 33.637424,1.960319 30.991705,1.993889 
	C15.204235,2.194208 6.977059,8.150259 1.577043,23.345356 
	C1.275858,23.610464 1.000000,24.000000 1.000000,24.000000 
	C1.000000,16.388750 1.000000,8.777500 1.000000,1.000000 
	C13.353816,1.000000 25.708250,1.000000 38.516834,1.213019 
	C38.970985,1.426039 38.928326,1.850929 38.928326,1.850929 
z"/>
<path fill="#FDFDFD" opacity="1.000000" stroke="none" 
	d="
M201.468674,226.000000 
	C205.279343,224.139786 209.988022,222.898819 213.749176,220.291168 
	C221.715240,214.768280 225.686478,206.856354 225.328766,196.525665 
	C225.580429,196.104843 226.000000,196.000000 226.000000,196.000000 
	C226.000000,205.919754 226.000000,215.839508 226.000000,226.000000 
	C217.980713,226.000000 209.959030,226.000000 201.468674,226.000000 
z"/>
<path fill="#FDFDFD" opacity="1.000000" stroke="none" 
	d="
M1.866232,204.099350 
	C4.939133,215.494980 12.449541,222.336243 23.841530,225.678162 
	C16.408718,226.000000 8.817437,226.000000 1.000000,226.000000 
	C1.000000,218.980804 1.000000,211.959183 1.213956,204.516312 
	C1.427911,204.095062 1.866232,204.099350 1.866232,204.099350 
z"/>
<path fill="#C2C2C2" opacity="1.000000" stroke="none" 
	d="
M1.905114,203.625809 
	C1.866232,204.099350 1.427911,204.095062 1.213956,204.047531 
	C1.000000,144.312439 1.000000,84.624878 1.000000,24.468658 
	C1.000000,24.000000 1.275858,23.610464 1.494708,23.705667 
	C1.795510,25.461504 1.948878,27.122128 1.949084,28.782772 
	C1.956316,86.905937 1.949135,145.029099 1.905114,203.625809 
z"/>
<path fill="#C2C2C2" opacity="1.000000" stroke="none" 
	d="
M33.468658,226.000000 
	C34.560883,225.666473 36.121536,225.042755 37.682686,225.041519 
	C86.936913,225.002655 136.191193,225.021378 185.445450,225.052490 
	C186.761932,225.053314 188.078247,225.288269 189.697327,225.707016 
	C137.979111,226.000000 85.958214,226.000000 33.468658,226.000000 
z"/>
<path fill="#C2C2C2" opacity="1.000000" stroke="none" 
	d="
M225.108582,173.925064 
	C225.080627,134.802750 225.049805,95.680428 225.041092,56.558102 
	C225.040863,55.573940 225.284363,54.589722 225.707092,53.302765 
	C226.000000,93.020897 226.000000,133.041794 225.778030,173.502106 
	C225.556061,173.941528 225.108597,173.925064 225.108582,173.925064 
z"/>
<path fill="#7A7A7A" opacity="1.000000" stroke="none" 
	d="
M39.302040,2.040673 
	C38.928326,1.850929 38.970985,1.426039 38.985493,1.213019 
	C53.687561,1.000000 68.375122,1.000000 83.535172,1.221506 
	C84.007652,1.443011 84.051437,1.883920 84.051437,1.883920 
	C82.788559,2.235142 81.527374,2.884252 80.262527,2.891478 
	C67.692764,2.963289 55.122337,2.944144 42.552319,2.894844 
	C41.592609,2.891080 40.634571,2.461871 39.302040,2.040673 
z"/>
<path fill="#C2C2C2" opacity="1.000000" stroke="none" 
	d="
M84.515724,1.915403 
	C84.051437,1.883920 84.007652,1.443011 84.003830,1.221506 
	C102.020897,1.000000 120.041786,1.000000 138.538086,1.204787 
	C139.013474,1.409575 139.028503,1.819096 139.028503,1.819096 
	C121.012337,1.861692 102.996178,1.904289 84.515724,1.915403 
z"/>
<path fill="#7A7A7A" opacity="1.000000" stroke="none" 
	d="
M189.531357,1.000000 
	C190.000000,1.000000 190.030106,1.425565 190.051361,1.637817 
	C181.945129,1.980508 173.817627,2.110947 165.338379,1.838385 
	C164.986603,1.435384 165.000000,1.000000 165.000000,1.000000 
	C173.020905,1.000000 181.041809,1.000000 189.531357,1.000000 
z"/>
<path fill="#7A7A7A" opacity="1.000000" stroke="none" 
	d="
M224.925507,174.301926 
	C225.108597,173.925064 225.556061,173.941528 225.778030,173.970764 
	C226.000000,181.020950 226.000000,188.041901 226.000000,195.531433 
	C226.000000,196.000000 225.580429,196.104843 225.364792,196.088745 
	C225.013580,188.941376 224.877991,181.810074 224.925507,174.301926 
z"/>
<path fill="#CDCDCD" opacity="1.000000" stroke="none" 
	d="
M164.531342,1.000000 
	C165.000000,1.000000 164.986603,1.435384 164.964386,1.652043 
	C156.614304,1.881035 148.286423,1.893369 139.493530,1.862399 
	C139.028503,1.819096 139.013474,1.409575 139.006744,1.204787 
	C147.354233,1.000000 155.708466,1.000000 164.531342,1.000000 
z"/>
<path fill="#FDFDFD" opacity="1.000000" stroke="none" 
	d="
M92.346222,179.867371 
	C92.346230,149.435516 92.346230,119.484428 92.346230,89.243042 
	C102.351547,89.243042 111.769470,89.243042 121.661728,89.243042 
	C121.661728,92.906265 121.661728,96.495644 121.661728,100.085022 
	C122.212440,100.485916 122.763145,100.886810 123.313858,101.287704 
	C123.989700,100.060661 124.479889,98.675598 125.369438,97.630447 
	C137.352661,83.551102 159.164719,83.891190 170.729141,90.679443 
	C180.924637,96.664146 186.446274,106.064705 186.873520,117.344986 
	C187.730667,139.976517 187.400681,162.653137 187.539017,185.311264 
	C187.542923,185.950241 187.301651,186.590714 187.113388,187.539551 
	C177.302200,187.539551 167.576462,187.539551 157.336716,187.539551 
	C157.252304,185.708511 157.106110,183.940567 157.099289,182.172104 
	C157.034363,165.343658 156.991440,148.515121 156.945663,131.686600 
	C156.918533,121.712502 150.712982,114.389847 141.838806,113.869057 
	C131.034698,113.235001 122.973312,119.549080 122.449890,130.154663 
	C121.809807,143.124115 122.034317,156.137009 121.923958,169.131454 
	C121.873199,175.108078 121.915306,181.085480 121.915306,187.468719 
	C112.110733,187.468719 102.708412,187.468719 92.684059,187.468719 
	C92.575348,185.177429 92.460785,182.762787 92.346222,179.867371 
z"/>
<path fill="#FEFEFE" opacity="1.000000" stroke="none" 
	d="
M48.162216,187.872162 
	C46.045956,187.872070 44.408825,187.872070 42.364304,187.872070 
	C42.364304,154.821884 42.364304,122.182068 42.364304,89.248146 
	C52.208206,89.248146 61.924042,89.248146 71.962708,89.248146 
	C71.962708,122.022751 71.962708,154.556061 71.962708,187.872238 
	C64.146912,187.872238 56.394131,187.872238 48.162216,187.872162 
z"/>
<path fill="#FDFDFD" opacity="1.000000" stroke="none" 
	d="
M65.397408,73.574997 
	C56.675137,77.236153 49.272861,75.761452 43.735889,69.517494 
	C38.947662,64.117889 37.875557,54.993549 41.325138,49.000431 
	C45.535931,41.684826 52.478058,38.550995 61.237667,40.011475 
	C67.555588,41.064854 73.200089,46.900276 74.676468,53.904827 
	C76.290848,61.564095 73.065445,68.582001 65.397408,73.574997 
z"/>
</svg>