<svg version="1.1" id="Layer_1" xmlns="http://www.w3.org/2000/svg" xmlns:xlink="http://www.w3.org/1999/xlink" x="0px" y="0px"
	 width="100%" viewBox="0 0 225 225" enable-background="new 0 0 225 225" xml:space="preserve">
<path fill="#FEFEFE" opacity="1.000000" stroke="none" 
	d="
M1.000000,185.000000 
	C1.000000,123.725800 1.000000,62.451603 1.000000,1.088703 
	C75.999954,1.088703 150.999954,1.088703 226.000000,1.088703 
	C226.000000,15.757677 226.000000,30.410181 225.824768,45.532551 
	C225.649551,46.002419 225.299103,46.003006 225.111115,45.679996 
	C217.588821,47.257080 210.254517,49.157173 202.920227,51.057266 
	C209.997131,43.806709 216.533829,36.825176 219.671875,26.876589 
	C211.526459,29.959843 203.969513,32.920933 196.332565,35.658878 
	C193.497833,36.675163 190.744476,36.975956 188.039932,34.455505 
	C178.809616,25.853512 167.777634,22.373306 155.140594,22.671377 
	C134.322189,23.162420 115.069435,39.251835 111.846710,59.965809 
	C110.894081,66.088844 111.188820,72.405937 110.897659,78.955376 
	C73.002747,76.324791 42.005596,59.780228 16.858486,31.012400 
	C11.653496,39.712055 10.441947,48.256237 10.878184,57.210766 
	C11.567938,71.369186 18.280508,82.400536 29.020111,91.390274 
	C28.766026,91.796448 28.511938,92.202621 28.257853,92.608795 
	C22.336378,90.936661 16.414904,89.264526 10.529752,87.602654 
	C8.369404,105.549561 22.473408,124.013733 45.045593,133.566223 
	C39.081314,133.566223 33.117035,133.566223 26.429588,133.566223 
	C29.889957,143.612320 34.884792,151.421188 42.893616,156.187668 
	C50.500904,160.715179 59.072124,163.623047 67.934532,167.560806 
	C60.361244,171.370346 52.837498,175.572449 44.980747,179.014420 
	C31.393118,184.967026 16.871992,185.305710 2.002292,185.088440 
	C1.445793,185.035751 1.222897,185.017883 1.000000,185.000000 
z"/>
<path fill="#FFFFFF" opacity="1.000000" stroke="none" 
	d="
M225.299103,46.003006 
	C225.299103,46.003006 225.649551,46.002419 225.824768,46.001209 
	C226.000000,105.941109 226.000000,165.882217 226.000000,225.911667 
	C151.000046,225.911667 76.000046,225.911667 1.000017,225.904831 
	C1.000000,212.577774 1.000000,199.257538 1.000000,185.468658 
	C1.222897,185.017883 1.445793,185.035751 2.163182,185.356476 
	C29.544954,202.546814 58.942181,207.894836 90.122108,204.149597 
	C129.359848,199.436493 159.577179,179.831238 181.327347,147.167969 
	C196.375809,124.568962 203.097549,99.283302 203.931305,72.276184 
	C203.994873,70.217201 204.797668,67.730164 206.141174,66.238686 
	C212.356018,59.339302 218.883591,52.721619 225.299103,46.003006 
z"/>
<path fill="#848284" opacity="1.000000" stroke="none" 
	d="
M225.111115,45.680000 
	C218.883591,52.721619 212.356018,59.339302 206.141174,66.238686 
	C204.797668,67.730164 203.994873,70.217201 203.931305,72.276184 
	C203.097549,99.283302 196.375809,124.568962 181.327347,147.167969 
	C159.577179,179.831238 129.359848,199.436493 90.122108,204.149597 
	C58.942181,207.894836 29.544954,202.546814 2.496785,185.391296 
	C16.871992,185.305710 31.393118,184.967026 44.980747,179.014420 
	C52.837498,175.572449 60.361244,171.370346 67.934532,167.560806 
	C59.072124,163.623047 50.500904,160.715179 42.893616,156.187668 
	C34.884792,151.421188 29.889957,143.612320 26.429588,133.566223 
	C33.117035,133.566223 39.081314,133.566223 45.045593,133.566223 
	C22.473408,124.013733 8.369404,105.549561 10.529752,87.602654 
	C16.414904,89.264526 22.336378,90.936661 28.257853,92.608795 
	C28.511938,92.202621 28.766026,91.796448 29.020111,91.390274 
	C18.280508,82.400536 11.567938,71.369186 10.878184,57.210766 
	C10.441947,48.256237 11.653496,39.712055 16.858486,31.012400 
	C42.005596,59.780228 73.002747,76.324791 110.897659,78.955376 
	C111.188820,72.405937 110.894081,66.088844 111.846710,59.965809 
	C115.069435,39.251835 134.322189,23.162420 155.140594,22.671377 
	C167.777634,22.373306 178.809616,25.853512 188.039932,34.455505 
	C190.744476,36.975956 193.497833,36.675163 196.332565,35.658878 
	C203.969513,32.920933 211.526459,29.959843 219.671875,26.876589 
	C216.533829,36.825176 209.997131,43.806709 202.920227,51.057266 
	C210.254517,49.157173 217.588821,47.257080 225.111115,45.680000 
z"/>
</svg>